# xmcd
#
# Track frame offsets:
#	150
#	19932
#	41647
#	63432
#	79775
#	99855
#	118250
#	140637
#	159795
#	189945
#	206602
#	224157
#	246484
#	266935
#	286752
#	307605
#
# Disc length: 4375
#
# Revision: 2
# Processed by: cddbd v1.5.1PL0 Copyright (c) Steve Scherf et al.
# Submitted via: CDex 1.50
# Normalized: r1:DSETVAR1,TDELIM( - )
#
DISCID=e7111510
DTITLE=Various Artist - La noche Cubana vol.6
DYEAR=1997
DGENRE=Salsa
TTITLE0=Saned - Quando tu te fuiste
TTITLE1=Gustavo Rodriguez - Septimo sentido
TTITLE2=The Latin Brothers - Amor callejero
TTITLE3=Erick Franceschi - El soltero
TTITLE4=Bamboleo - Bemba colora
TTITLE5=Los Brillaticos - Pa'curabande to voy
TTITLE6=Deddie Romero - Ven junto a mi
TTITLE7=The Latin Brothers - El trovador
TTITLE8=Thalia - Piel morena
TTITLE9=Changó - Solo mentiras
TTITLE10=El Dandy - Ritmo, carisma y sabor
TTITLE11=Gustavo rodriguez - Eres todo para mi
TTITLE12=Grupo Caneo - Por fuera y por dentro
TTITLE13=Julio moreno - No paren
TTITLE14=Harvey - Amame una vez mas
TTITLE15=Manzanita - Arranca
EXTD=YEAR: 1997
EXTT0=
EXTT1=
EXTT2=
EXTT3=
EXTT4=
EXTT5=
EXTT6=
EXTT7=
EXTT8=
EXTT9=
EXTT10=
EXTT11=
EXTT12=
EXTT13=
EXTT14=
EXTT15=
PLAYORDER=
